<svg width="279" height="338" viewBox="0 0 279 338" fill="none" xmlns="http://www.w3.org/2000/svg">
<g clip-path="url(#clip0_195_66)">
<path d="M216.306 167.777C211.271 167.556 201.703 170.674 193.775 173.656C184.634 177.055 175.767 181.107 176.416 180.037C177.218 178.711 190.634 171.54 201.388 166.069C205.558 163.798 209.455 161.062 213.003 157.912C218.721 153.239 218.124 138.915 213.14 134.649C208.155 130.384 203.444 133.732 195.294 137.776C190.848 139.994 186.154 142.534 181.997 144.87C187.758 141.37 194.56 137.054 200.312 132.857C204.844 129.56 209.7 126.697 211.945 124.004C220.479 113.621 211.689 102.032 207.985 99.5512C204.281 97.0703 197.368 101.446 188.04 108.048C176.723 116.017 164.459 125.244 164.058 124.284C163.332 122.525 185.65 105.269 194.517 97.6141C199.715 93.128 206.798 78.2935 207.592 70.0096C208.249 63.1361 210.076 54.8267 197.931 53.2803C185.787 51.734 182.663 70.8592 172.763 78.166C162.863 85.4728 92.5391 129.016 92.5391 129.016C92.5391 129.016 65.1179 188.142 64.3754 209.205C63.6329 230.267 65.0411 243.275 65.0411 243.275L39.4207 338H129.34L133.684 281.338C137.499 279.367 146.537 270.675 154.917 263.844C163.298 257.013 183.935 221.643 185.445 218.202C186.043 216.843 190.788 213.393 195.311 208.788C202.215 201.745 213.899 195.976 218.286 193.011C226.47 187.488 222.382 168.04 216.306 167.777Z" fill="#FAC4A8"/>
<path d="M65.8091 233.878C50.4471 206.961 154.567 196.392 184.259 220.479C181.699 225.11 175.724 235.305 169.528 244.787C157.247 248.942 141.74 255.221 127.957 263.895C99.708 281.67 84.0814 265.985 65.8091 233.878Z" fill="#E5A98E"/>
<path d="M70.5543 18.2331L155.839 1.90318C157 1.68163 158.182 1.58478 159.364 1.61431L161.813 1.14701C170.553 -0.55225 179.078 5.65855 180.828 14.9365L217.791 211.252C219.421 219.901 210.519 227.803 210.519 227.803C207.679 231.062 203.819 233.273 199.561 234.082C192.375 235.475 114.268 250.42 114.268 250.42C104.957 252.204 95.8675 245.611 94.007 235.721L57.0357 39.3974C55.1752 29.5077 61.2347 20.0173 70.5543 18.2331Z" fill="#292929"/>
<path d="M119.747 246.563C111.008 248.262 102.482 242.043 100.741 232.773L63.7694 36.4576C62.0625 27.1797 67.7123 18.2841 76.4431 16.6103L161.736 0.271886C170.467 -1.42738 178.993 4.78343 180.743 14.0529L217.705 210.377C219.412 219.655 213.771 228.551 205.032 230.224L119.747 246.563Z" fill="#383838"/>
<path d="M210.238 209.714C210.691 212.189 210.147 214.741 208.724 216.82C207.301 218.898 205.113 220.335 202.634 220.819L118.569 236.962C116.095 237.427 113.537 236.895 111.457 235.484C109.377 234.072 107.944 231.897 107.474 229.434L71.2457 37.1204C70.7898 34.6446 71.3324 32.0897 72.7558 30.0095C74.1792 27.9292 76.3687 26.4913 78.8499 26.0072L162.914 9.9067C165.388 9.44159 167.946 9.97318 170.027 11.3847C172.107 12.7962 173.539 14.9721 174.009 17.4344L210.238 209.714Z" fill="#E6E6E6"/>
<path d="M210.238 209.714C210.691 212.189 210.147 214.741 208.724 216.82C207.301 218.898 205.113 220.335 202.634 220.819L118.569 236.962C116.095 237.427 113.537 236.895 111.457 235.484C109.377 234.072 107.944 231.897 107.474 229.434L71.2457 37.1204C70.7898 34.6446 71.3324 32.0897 72.7558 30.0095C74.1792 27.9292 76.3687 26.4913 78.8499 26.0072L162.914 9.9067C165.388 9.44159 167.946 9.97318 170.027 11.3847C172.107 12.7962 173.539 14.9721 174.009 17.4344L210.238 209.714Z" fill="#ABCCD5"/>
<mask id="mask0_195_66" style="mask-type:luminance" maskUnits="userSpaceOnUse" x="70" y="9" width="141" height="229">
<path d="M210.357 210.377C210.78 212.677 210.274 215.051 208.95 216.982C207.625 218.913 205.588 220.246 203.282 220.691L117.938 237.047C116.8 237.262 115.631 237.253 114.497 237.018C113.363 236.784 112.287 236.33 111.329 235.681C110.372 235.033 109.552 234.203 108.917 233.239C108.282 232.275 107.844 231.196 107.628 230.063L71.1261 36.4491C70.7026 34.1525 71.205 31.7821 72.5244 29.8516C73.8439 27.921 75.8742 26.5856 78.1756 26.1346L163.58 9.77925C164.718 9.56253 165.887 9.57136 167.021 9.80522C168.156 10.0391 169.232 10.4934 170.19 11.1421C171.148 11.7909 171.967 12.6213 172.602 13.5858C173.237 14.5504 173.674 15.6301 173.89 16.7632L210.357 210.377Z" fill="white"/>
</mask>
<g mask="url(#mask0_195_66)">
<path d="M108.063 196.553C108.401 198.323 109.429 199.887 110.924 200.901C112.419 201.916 114.257 202.299 116.034 201.966L195.089 186.961C195.972 186.796 196.813 186.459 197.564 185.97C198.316 185.48 198.963 184.848 199.469 184.11C199.975 183.371 200.329 182.54 200.512 181.665C200.695 180.789 200.702 179.887 200.534 179.009L191.394 130.639C191.056 128.872 190.028 127.309 188.536 126.295C187.043 125.28 185.207 124.896 183.431 125.227L104.376 140.189C103.494 140.354 102.653 140.691 101.901 141.181C101.149 141.67 100.502 142.302 99.9965 143.041C99.4907 143.779 99.1363 144.61 98.9535 145.485C98.7707 146.361 98.7631 147.263 98.9313 148.142L108.063 196.553Z" fill="#C7E1E8"/>
<path d="M112.817 223.368C113.149 225.138 114.173 226.706 115.664 227.725C117.155 228.745 118.992 229.133 120.771 228.805L158.903 221.703C159.785 221.539 160.627 221.204 161.379 220.717C162.131 220.229 162.779 219.599 163.287 218.862C163.794 218.125 164.15 217.296 164.335 216.421C164.52 215.547 164.531 214.645 164.365 213.767L162.598 204.311C162.434 203.433 162.098 202.596 161.609 201.848C161.12 201.1 160.488 200.455 159.748 199.95C159.009 199.445 158.177 199.09 157.3 198.905C156.422 198.72 155.517 198.71 154.636 198.873L116.512 205.976C115.631 206.139 114.79 206.474 114.039 206.961C113.287 207.448 112.639 208.077 112.132 208.813C111.625 209.549 111.268 210.378 111.083 211.251C110.897 212.124 110.886 213.025 111.05 213.903L112.817 223.368Z" fill="#C7E1E8"/>
<path d="M167.762 213.385C167.926 214.262 168.262 215.099 168.751 215.847C169.24 216.595 169.872 217.24 170.612 217.745C171.351 218.25 172.183 218.605 173.06 218.79C173.938 218.975 174.843 218.986 175.724 218.822L200.116 214.328C201.894 213.998 203.469 212.978 204.493 211.494C205.517 210.009 205.907 208.18 205.578 206.409L203.811 196.944C203.648 196.066 203.313 195.228 202.824 194.479C202.335 193.73 201.703 193.084 200.964 192.578C200.224 192.072 199.392 191.717 198.514 191.531C197.636 191.346 196.731 191.335 195.849 191.498L171.457 195.993C169.679 196.323 168.105 197.342 167.08 198.827C166.056 200.312 165.666 202.14 165.995 203.911L167.762 213.385Z" fill="#C7E1E8"/>
<path d="M88.1779 98.914C88.5153 100.683 89.5442 102.247 91.0387 103.262C92.5333 104.277 94.3713 104.659 96.1491 104.326L175.195 89.3217C176.079 89.1574 176.921 88.8212 177.673 88.3323C178.426 87.8433 179.074 87.2114 179.58 86.4725C180.087 85.7337 180.442 84.9026 180.626 84.0268C180.809 83.1511 180.817 82.2479 180.649 81.3691L171.508 32.9912C171.169 31.2251 170.14 29.6649 168.648 28.6521C167.156 27.6394 165.321 27.2565 163.546 27.5875L84.491 42.5835C83.6085 42.7487 82.7673 43.0856 82.0158 43.575C81.2642 44.0643 80.617 44.6964 80.1112 45.4352C79.6054 46.1739 79.251 47.0047 79.0682 47.88C78.8854 48.7552 78.8779 49.6578 79.046 50.536L88.1779 98.914Z" fill="#C7E1E8"/>
<path d="M92.9486 125.745C93.2802 127.516 94.3041 129.083 95.7955 130.103C97.2869 131.122 99.1237 131.511 100.903 131.183L139.035 124.046C139.917 123.883 140.758 123.548 141.511 123.06C142.263 122.573 142.911 121.943 143.418 121.206C143.926 120.469 144.282 119.639 144.467 118.765C144.652 117.891 144.662 116.989 144.497 116.111L142.73 106.646C142.397 104.875 141.371 103.308 139.877 102.29C138.384 101.272 136.546 100.886 134.767 101.216L96.6013 108.328C95.719 108.491 94.8776 108.826 94.1254 109.314C93.3732 109.801 92.7249 110.431 92.2176 111.168C91.7103 111.905 91.3539 112.735 91.1689 113.609C90.9839 114.483 90.9738 115.385 91.1393 116.263L92.9486 125.745Z" fill="#C7E1E8"/>
<path d="M147.876 115.737C148.04 116.615 148.375 117.453 148.864 118.202C149.352 118.951 149.984 119.597 150.724 120.103C151.463 120.609 152.296 120.964 153.174 121.15C154.051 121.335 154.957 121.346 155.839 121.183L180.239 116.688C182.018 116.358 183.592 115.339 184.616 113.854C185.64 112.369 186.03 110.541 185.701 108.77L183.935 99.3048C183.771 98.4265 183.436 97.5888 182.947 96.8397C182.459 96.0905 181.827 95.4446 181.087 94.9388C180.348 94.433 179.515 94.0772 178.637 93.8919C177.76 93.7066 176.854 93.6953 175.972 93.8587L151.58 98.3532C149.8 98.6814 148.224 99.7 147.198 101.185C146.172 102.67 145.781 104.5 146.11 106.272L147.876 115.737Z" fill="#C7E1E8"/>
</g>
<g opacity="0.15">
<mask id="mask1_195_66" style="mask-type:luminance" maskUnits="userSpaceOnUse" x="63" y="-1" width="156" height="248">
<path d="M119.747 246.563C111.008 248.262 102.482 242.043 100.741 232.773L63.7694 36.4576C62.0625 27.1797 67.7123 18.2841 76.4431 16.6103L161.736 0.271886C170.467 -1.42738 178.993 4.78343 180.743 14.0529L217.705 210.377C219.412 219.655 213.771 228.551 205.032 230.224L119.747 246.563Z" fill="white"/>
</mask>
<g mask="url(#mask1_195_66)">
<path d="M224.456 242.586L242.976 201.167L18.5198 85.4558L0 126.875L224.456 242.586Z" fill="white"/>
<path d="M264.312 153.443L279 120.588L54.5438 4.86839L39.8474 37.7321L264.312 153.443Z" fill="white"/>
<path d="M248.003 189.909L254.446 175.508L29.9901 59.797L23.5466 74.1982L248.003 189.909Z" fill="white"/>
</g>
</g>
<path d="M147.697 12.7445L147.604 17.6128C147.604 17.6128 148.124 24.4099 143.336 25.353L102.576 33.2036C97.7709 34.1212 95.7482 27.596 95.7482 27.596L93.8877 23.1015L147.697 12.7445Z" fill="#212121"/>
<path d="M70.5033 98.2428C78.5427 97.1043 84.4742 105.303 86.5822 116.646C88.1093 125.187 89.0418 133.823 89.3729 142.492C89.6375 147.394 96.9771 167.98 97.1734 170.631C97.5319 175.542 112.535 185.423 121.505 208.321C130.475 231.218 122.418 266.784 99.9301 270.267C77.4418 273.751 69.7864 263.827 63.8805 250.072C57.9747 236.316 50.6948 205.764 55.9691 190.147C66.108 160.138 70.4777 142.381 68.216 126.603C65.9544 110.826 62.4638 99.4068 70.5033 98.2428Z" fill="#FAC4A8"/>
<path d="M65.98 102.474C67.6357 100.409 70.7763 98.8205 73.2769 104.615C75.385 109.517 78.978 120.163 78.0818 125.006C77.1857 129.849 69.0183 133.231 68.5659 130.622C68.1136 128.014 63.7696 105.235 65.98 102.474Z" fill="#FFE8DB"/>
<path d="M130.406 324.109C119.645 294.609 95.748 281.593 95.748 281.593C109.54 283.727 123.633 282.857 137.055 279.044C136.005 279.899 134.886 280.666 133.709 281.338L130.406 324.109Z" fill="#E5A98E"/>
<path d="M197.308 98.1578C196.293 98.7441 191.744 104.029 194.671 114.301C197.598 124.573 203.12 127.547 207.549 125.151C215.162 121.047 216.041 113.426 214.573 108.158C213.942 105.872 212.61 99.7636 208.138 97.3082C203.666 94.8527 198.435 97.4951 197.308 98.1578Z" fill="#FAC4A8"/>
<path d="M202.71 98.1068C205.447 100.151 207.55 102.922 208.778 106.102C210.198 109.914 210.977 113.933 211.083 117.997C211.083 117.997 215.418 115.677 213.25 108.328C211.936 103.867 210.076 100.758 207.618 99.1689C206.03 98.1068 203.735 97.648 202.71 98.1068Z" fill="#FFE8DB"/>
<path d="M203.607 132.304C202.804 132.814 199.083 137.691 200.79 147.598C202.497 157.505 206.252 161.974 209.948 159.968C216.221 156.57 216.502 144.063 215.649 138.957C214.795 133.851 205.228 131.259 203.607 132.304Z" fill="#FAC4A8"/>
<path d="M216.084 144.837C215.606 140.52 214.377 137.334 212.243 135.423C210.869 134.174 208.719 133.324 207.643 133.545C209.907 135.881 211.458 138.81 212.115 141.99C212.817 145.707 212.861 149.517 212.243 153.248C212.243 153.248 216.886 151.956 216.084 144.837Z" fill="#FFE8DB"/>
<path d="M215.444 167.912C212.03 166.825 204.972 168.507 205.348 178.669C205.723 188.83 210.665 197.913 215.973 194.285C221.281 190.657 222.425 185.211 221.666 179.765C220.906 174.319 218.858 169 215.444 167.912Z" fill="#FAC4A8"/>
<path d="M220.266 180.02C219.745 176.043 218.397 173.104 216.118 171.337C214.642 170.189 212.329 169.399 211.16 169.637C213.524 171.685 215.209 174.399 215.99 177.42C216.732 180.827 216.764 184.349 216.084 187.768C216.084 187.768 221.119 186.579 220.266 180.02Z" fill="#FFE8DB"/>
<g style="mix-blend-mode:multiply">
<path d="M213.464 151.871C214.215 155.822 212.184 159.518 208.932 160.096L118.467 176.655C115.207 177.25 111.955 174.531 111.196 170.589L97.0369 96.7814C96.2773 92.8391 98.3085 89.1347 101.569 88.5655L192.034 72.0062C195.294 71.4114 198.546 74.1218 199.305 78.0725L213.464 151.871Z" fill="#E3E3E3"/>
</g>
<g opacity="0.9">
<path d="M218.431 145.406C219.182 149.348 217.159 153.052 213.899 153.622L123.434 170.181C120.174 170.776 116.922 168.065 116.163 164.115L102.004 90.3157C101.244 86.3649 103.276 82.669 106.536 82.0913L197.001 65.5405C200.253 64.9373 203.513 67.6561 204.264 71.5984L218.431 145.406Z" fill="white"/>
<path d="M191.419 142.933L126.122 154.879L125.482 151.549L190.779 139.603L191.419 142.933Z" fill="#D9D9D9"/>
<path d="M189.866 134.836L124.569 146.791L123.929 143.452L189.226 131.506L189.866 134.836Z" fill="#D9D9D9"/>
<path d="M188.313 126.748L123.016 138.694L122.384 135.363L187.673 123.409L188.313 126.748Z" fill="#D9D9D9"/>
<path d="M201.627 88.9478C202.634 94.207 199.92 99.1434 195.593 99.908C191.266 100.673 186.905 97.0873 185.898 91.8281C184.891 86.5688 187.605 81.6325 191.94 80.8678C196.276 80.1032 200.62 83.6886 201.627 88.9478Z" fill="#5151FC"/>
<path d="M196.745 88.0132C196.744 88.2206 196.685 88.4235 196.574 88.5995C196.224 89.1347 195.892 89.67 195.559 90.2138L194.868 91.2928L193.767 93.06C193.553 93.3914 193.348 93.7397 193.118 94.0711C193.09 94.1245 193.047 94.1691 192.995 94.2003C192.944 94.2315 192.884 94.2479 192.823 94.2479C192.763 94.2479 192.703 94.2315 192.652 94.2003C192.6 94.1691 192.557 94.1245 192.529 94.0711C192.222 93.6208 191.94 93.1535 191.676 92.6947C191.411 92.2359 191.164 91.8451 190.916 91.4712C190.816 91.312 190.763 91.128 190.763 90.9402C190.763 90.7524 190.816 90.5684 190.916 90.4092C190.963 90.3106 191.023 90.2191 191.095 90.1373C191.129 90.0885 191.176 90.0496 191.23 90.0248C191.284 90 191.344 89.9901 191.403 89.9962C191.462 90.0022 191.519 90.0241 191.567 90.0593C191.615 90.0946 191.652 90.1421 191.676 90.1968C191.966 90.6301 192.247 91.0464 192.529 91.5307C192.557 91.5878 192.598 91.638 192.648 91.6777C192.699 91.7173 192.757 91.7455 192.819 91.7601C192.872 91.7659 192.925 91.7588 192.974 91.7396C193.023 91.7203 193.066 91.6895 193.101 91.6496C193.203 91.5211 193.294 91.3847 193.374 91.2418C193.639 90.834 193.895 90.3922 194.151 90.0014C194.552 89.3726 194.944 88.7439 195.337 88.1152L195.849 87.3165C195.889 87.2409 195.948 87.1767 196.02 87.1296C196.052 87.1066 196.088 87.0901 196.126 87.0811C196.164 87.0721 196.204 87.0707 196.243 87.077C196.282 87.0833 196.319 87.0972 196.352 87.1179C196.386 87.1386 196.415 87.1657 196.438 87.1976C196.64 87.421 196.75 87.7124 196.745 88.0132Z" fill="white"/>
<path d="M183.303 101.913L118.006 113.859L117.366 110.528L182.663 98.5826L183.303 101.913Z" fill="#D9D9D9"/>
<path d="M181.75 93.8162L116.453 105.762L115.813 102.431L181.11 90.4856L181.75 93.8162Z" fill="#D9D9D9"/>
<path d="M180.197 85.7192L114.9 97.6735L114.26 94.3345L179.557 82.3887L180.197 85.7192Z" fill="#D9D9D9"/>
<path d="M119.252 103.128C119.246 103.106 119.246 103.082 119.252 103.06C119.244 103.051 119.239 103.039 119.239 103.026C119.239 103.014 119.244 103.002 119.252 102.992H119.295C119.295 102.992 119.295 102.992 119.295 103.043C119.301 103.06 119.301 103.078 119.295 103.094C119.304 103.106 119.31 103.121 119.31 103.137C119.31 103.152 119.304 103.167 119.295 103.179C119.295 103.179 119.261 103.171 119.252 103.128ZM119.252 103.018C119.252 103.018 119.261 103.001 119.261 103.018H119.252ZM119.312 103.103C119.305 103.119 119.305 103.137 119.312 103.154C119.321 103.138 119.324 103.12 119.32 103.103H119.312Z" fill="white"/>
<path d="M203.223 107.521L116.291 123.434L116.018 121.998L202.95 106.093L203.223 107.521Z" fill="#E8E8E8"/>
</g>
</g>
<defs>
<clipPath id="clip0_195_66">
<rect width="279" height="338" fill="white"/>
</clipPath>
</defs>
</svg>
